# xmcd CD database file
#
# Track frame offsets:
#	150
#	25117
#	40920
#	61119
#	83884
#	112067
#	136031
#	162308
#	186768
#	206118
#	229166
#	249160
#	261270
#
# Disc length: 3672 seconds
#
# Revision: 0
# Processed by: cddbd v1.5.1PL2 Copyright (c) Steve Scherf et al.
# Submitted via: CDex 1.51
#
DISCID=ab0e560d
DTITLE=Thais Clark and Her Palm Court Serenaders - That Old Feeling
DYEAR=2003
DGENRE=Jazz
TTITLE0=Got That Old Feeling
TTITLE1=Mean to Me
TTITLE2=Marie
TTITLE3=Wild Women
TTITLE4=Rosetta
TTITLE5=Black and Blue
TTITLE6=Am I Blue
TTITLE7=Barellhousin'
TTITLE8=Summertime
TTITLE9=Old Man River
TTITLE10=Bye and Bye
TTITLE11=Dippermouth Blues
TTITLE12=Nobody Knows the Troubles I've Seen
EXTD=YEAR: 2003
EXTT0=
EXTT1=
EXTT2=
EXTT3=
EXTT4=
EXTT5=
EXTT6=
EXTT7=
EXTT8=
EXTT9=
EXTT10=
EXTT11=
EXTT12=
PLAYORDER=
